<?xml version="1.0" encoding="utf-8"?>
<!-- Generator: Adobe Illustrator 26.3.1, SVG Export Plug-In . SVG Version: 6.00 Build 0)  -->
<svg version="1.1" id="_x32_023_x5F_Rogers_x5F_DA291C_x5F_NO_x5F_TMMC_x5F_RGB"
	 xmlns="http://www.w3.org/2000/svg" xmlns:xlink="http://www.w3.org/1999/xlink" x="0px" y="0px" viewBox="0 0 306 72"
	 style="enable-background:new 0 0 306 72;" xml:space="preserve">
<style type="text/css">
	.st0{fill:#DA291C;}
</style>
<g>
	<g>
		<path class="st0" d="M55.5,18.9c3.4,3.9,6.3,9.8,6.3,17.1c0,11.9-7.2,19.2-14.9,19.2c-3.8,0-7.5-1.3-9.7-3
			c12.3-5.2,19.5-16,19.5-25.1C56.7,23.5,56.1,20.8,55.5,18.9 M18.3,15.9c1.9-0.6,4.7-1.3,8.1-1.3c9.2,0,19.9,7.2,25.1,19.5
			c1.7-2.2,3-5.9,3-9.7c0-7.7-7.2-14.9-19.2-14.9C28,9.6,22.2,12.6,18.3,15.9 M15.3,53.1C14.7,51.2,14,48.5,14,45
			c0-9.2,7.2-19.9,19.5-25.1c-2.2-1.7-5.9-3-9.7-3C16.2,16.9,9,24.1,9,36C9,43.4,11.9,49.2,15.3,53.1 M52.5,56.1
			c-1.9,0.6-4.7,1.3-8.1,1.3c-9.2,0-19.9-7.2-25.1-19.5c-1.7,2.2-3,5.9-3,9.7c0,7.7,7.2,14.9,19.2,14.9
			C42.7,62.4,48.6,59.4,52.5,56.1"/>
		<g>
			<path class="st0" d="M113.6,36c0-12.1,7-20.4,18.5-20.4S150.6,24,150.6,36c0,12.2-7.2,20.3-18.5,20.3
				C120.6,56.4,113.6,48.2,113.6,36 M143.1,36c0-8.8-3.6-14.3-11-14.3c-7.2,0-11,5.2-11,14.3c0,9,3.8,14.2,11,14.2
				C139.3,50.3,143.1,45,143.1,36"/>
			<polyline class="st0" points="202.1,16.1 202.1,55.9 226.6,55.9 226.6,50 209.3,50 209.3,38.6 224.6,38.6 224.6,32.7 209.3,32.7 
				209.3,22 224.6,22 226.6,16.1 202.1,16.1 			"/>
			<path class="st0" d="M179.3,34.4l-1.9,5.7h6.1V49c-1.5,0.7-3.2,1.2-5.8,1.2c-8.4,0-12.6-5.6-12.6-14.2c0-8.4,4.2-14.4,12.8-14.4
				c3.2,0,6.3,1,9,2.7l2-6.1c-3.1-1.6-7.3-2.7-11.5-2.7c-12.1,0-19.8,8.9-19.8,20.9c0,11.4,6.8,19.8,19.6,19.8
				c5.4,0,9.9-1.4,13.5-3.2V34.4l0,0H179.3z"/>
			<path class="st0" d="M80.1,16.1h12c11,0,14.4,6.8,14.4,12.1c0,7.4-5.6,10.3-7.3,10.9v0.3c0.8,0.2,2.4,1,4.6,4.9l6.6,11.6h-8.1
				l-5.7-10c-2.3-4.1-3.2-5.4-6.9-5.4h-2.5V56h-7.1V16.1 M91.9,34.5c6.1,0,7.3-3.8,7.3-6.3c0-2.1-1.1-6.2-7.3-6.2h-4.7v12.4
				L91.9,34.5L91.9,34.5z"/>
			<path class="st0" d="M236.8,16.1h12c11,0,14.4,6.8,14.4,12.1c0,7.4-5.6,10.3-7.3,10.9v0.3c0.8,0.2,2.4,1,4.6,4.9l6.6,11.6H259
				l-5.7-10c-2.3-4.1-3.2-5.4-6.9-5.4h-2.5V56h-7.1V16.1 M248.6,34.5c6.1,0,7.3-3.8,7.3-6.3c0-2.1-1.1-6.2-7.3-6.2h-4.7v12.4
				L248.6,34.5L248.6,34.5z"/>
			<path class="st0" d="M279.8,26.2c0-3.1,3-4.5,6.3-4.5c4.5,0,7.9,1.5,8.6,1.7v-6.6c-0.6-0.2-3.6-1.2-9.3-1.2
				c-8.7,0-13.3,5.1-13.3,11c0,5.8,4.7,8.8,8.7,10.9c0.9,0.5,2,1.1,2.8,1.5c3.3,1.7,5.7,3.1,5.7,6.1c0,3.4-3.3,5.1-6.6,5.1
				c-5.7,0-9.1-2.1-9.7-2.4l-1.9,5.9c0.6,0.3,5.1,2.6,11.7,2.6c8.1,0,14.2-4.8,14.2-11.8c0-5-3.4-8.2-9-11.2c-1-0.5-1.7-0.9-2.6-1.4
				C282.2,30.3,279.8,29,279.8,26.2z"/>
		</g>
	</g>
</g>
</svg>
